<?xml version="1.0" encoding="UTF-8"?>
<svg id="Layer_2" data-name="Layer 2" xmlns="http://www.w3.org/2000/svg" viewBox="0 0 200.49 69.81">
  <defs>
    <style>
      .cls-1 {
        font-family: Sen-Bold, Sen;
        font-size: 41.41px;
        font-variation-settings: 'wght' 700;
        font-weight: 700;
      }

      .cls-1, .cls-2 {
        fill: #f4f4f4;
      }
    </style>
  </defs>
  <g id="Layer_2-2" data-name="Layer 2">
    <g>
      <g>
        <path class="cls-2" d="M45.61,53.27V17.75H1.88v36.24c.13,3.1.68,6.19,2.41,8.8,3.89,5.87,11.85,6.87,18.34,7,7.49.15,17.13-.82,21.07-8.19,1.37-2.57,1.78-5.46,1.9-8.34ZM40.14,19.97h1.54l.75-1.32c.07-.02.12.13.16.19.23.36.43.76.63,1.14h1.54l-.93,1.34.93,1.35h-1.51l-.77,1.28c-.06.01-.07-.03-.1-.07-.26-.35-.43-.86-.71-1.21h-1.51l.93-1.35-.93-1.34ZM40.14,37.42h1.54l.75-1.32c.09-.02.05.03.07.06.26.4.46.87.74,1.27h1.51l-.93,1.34.93,1.35h-1.51c-.28.35-.45.86-.71,1.21-.03.04-.04.08-.1.07l-.77-1.28h-1.56l.98-1.35-.93-1.34ZM21.42,19.97h1.51l.81-1.32.81,1.32h1.51l-.97,1.34.97,1.34h-1.58l-.73,1.32-.77-1.32h-1.58l.94-1.34-.94-1.34ZM7.34,57.93h-1.51l-.83,1.32-.73-1.32h-1.58l.97-1.34-.97-1.34h1.58l.73-1.32.83,1.32h1.51l-.94,1.34.94,1.34ZM7.34,40.1h-1.51c-.11.08-.76,1.38-.83,1.32l-.75-1.32h-1.56l.97-1.34-.97-1.34h1.58l.75-1.32.81,1.32h1.51l-.94,1.34.94,1.34ZM7.34,22.65h-1.51l-.83,1.32-.75-1.32h-1.56l.98-1.38-.93-1.31h1.54c.22-.38.44-.91.69-1.25.03-.04.04-.08.1-.07l.77,1.32h1.51l-.93,1.34.93,1.35ZM29.54,62.79c-3.58.52-7.92.52-11.51.04-3.39-.45-7.8-1.54-8.9-5.24h29.09c-1.26,3.55-5.32,4.71-8.69,5.2ZM20.54,35.04c.56,0,1.01.45,1.01,1.01s-.45,1.01-1.01,1.01-1.01-.45-1.01-1.01.45-1.01,1.01-1.01ZM19.24,34.52c-.55,0-1-.45-1-1s.45-1,1-1,1,.45,1,1-.45,1-1,1ZM20.55,32.15c0-.56.45-1.01,1.01-1.01s1.01.45,1.01,1.01-.45,1.01-1.01,1.01-1.01-.45-1.01-1.01ZM22.84,33.44c.56,0,1.01.45,1.01,1.01s-.45,1.01-1.01,1.01-1.01-.45-1.01-1.01.45-1.01,1.01-1.01ZM30.29,55.06c.02.21-.51.75-.67.91h-2.89s-.11-.05-.11-.05l-1.11-1.67v-6.89c.27.32.48.69.79.98.08.08.32.28.41.32.17.07.45.04.55.18l.89,2.78c.1.18.21.35.33.52.08.11.51.59.52.63.1.33-.36.22-.33.58.04.62,1.59,1.45,1.62,1.71ZM25.07,34.13c0-.56.45-1.01,1.01-1.01s1.01.45,1.01,1.01-.45,1.01-1.01,1.01-1.01-.45-1.01-1.01ZM25.09,36.5c0,.56-.45,1.01-1.01,1.01s-1.01-.45-1.01-1.01.45-1.01,1.01-1.01,1.01.45,1.01,1.01ZM38.65,55.97h-3.92c.29-1-.49-1.64-.94-2.41l.02-.06c.48-.34,1.1-.88,1.13-1.52.04-.86-.78-2.01-1.22-2.74-.44-.73-1.09-1.55-1.36-2.35-.26-.75.07-1.34-.1-2.07-.17-.75-.54-1.49-.94-2.13-.04-.26.25-.48.38-.69.37-.63.6-1.35.15-2.01-.08-.11-.49-.55-.59-.57-.33-.06-.45.36-.65.38-.19.02-.19-.51-.43-.58-.04-.01-.51-.05-.54-.04-.13.04-.19.23-.22.33-.32-.24-.62-.52-.96-.74-.24-.15-.59-.38-.87-.37-1.06.06-.93,1.64-.61,2.32.1.21.41.59.45.78.09.42-.03.99.06,1.47.11.59.53.96.71,1.5-.24.31-.85-.07-1.08-.27-.61-.5-.41-.75-.6-1.4-.11-.36-.6-.76-1-.69v-3.86l.07-.06c3.24-.18,8.34-2.43,8.03-6.34-.31-3.84-5.57-5.6-8.8-5.75-3.45-.16-9.15,1.15-10.17,5.02-1.05,3.96,3.55,6.31,6.73,6.92.17.03,1.23.15,1.25.21v15.94s-1.09,1.69-1.09,1.69l-.13.09h-12.64s-.22-2.28-.22-2.28v-29.29h30.42v28.56c-.08,1-.1,2.02-.3,3.01ZM28.31,33.65c-.56,0-1.01-.45-1.01-1.01s.45-1.01,1.01-1.01,1.01.45,1.01,1.01-.45,1.01-1.01,1.01ZM29.91,35.35c0,.56-.45,1.01-1.01,1.01s-1.01-.45-1.01-1.01.45-1.01,1.01-1.01,1.01.45,1.01,1.01ZM30.31,32.96c0-.55.45-1,1-1s1,.45,1,1-.45,1-1,1-1-.45-1-1ZM17.73,32.36c0,.55-.45,1-1,1s-1-.45-1-1,.45-1,1-1,1,.45,1,1ZM42.43,59.26l-.77-1.32h-1.56l.98-1.34-.98-1.34h1.56l.77-1.32c.08-.02.05.02.07.06.25.42.46.86.74,1.27h1.51l-.94,1.34.94,1.34h-1.51l-.81,1.32Z"/>
        <path class="cls-2" d="M1.32,2.84c.01.12.02.92-.02.96-.7.09-1.23.73-.93,1.43.07.16.32.34.34.43.05.18,0,.58,0,.8.1,1.32,1.19,2.62,2.47,2.94,1.2.3,2.63-.01,3.65-.69,1.64,1.13,4.25,1.17,5.44-.61.52.61,1.14,1.08,1.93,1.29,1.24.33,2.95-.04,4.02-.73,1.69,1.2,4.25,1.21,5.55-.57,1.03,1.38,2.55,1.6,4.16,1.26.62-.13,1.25-.34,1.76-.7,1.61,1.2,4.29,1.23,5.49-.56.52.61,1.14,1.08,1.93,1.29,1.24.33,2.95-.04,4.02-.73.85.62,2.03.92,3.07.84,1.52-.11,2.95-1.44,3.09-2.97.02-.24-.04-.69.01-.88.03-.09.26-.25.34-.43.3-.7-.23-1.35-.93-1.43-.04-.05-.03-.87-.01-1,.08-.79.74-1.27,1.32-1.72-.78-1.13-2.52-.48-2.64.79l-.36-.3c-.7.77-.2,1.81.45,2.43-.83-.32-1.71.01-2.56.09l.34.57c-.5.34-.96.76-1.28,1.28.49.31,1.11.28,1.66.19l-.13.81c.82-.39,1.64-.84,2.25-1.53.51.24.45.94.34,1.41-.5,1.99-3.18,2.1-4.42.77,1.07-.57.44-2.06-.73-1.86-.91.16-1.2,1.31-.41,1.81l.03.09c-1.11.76-2.83,1.29-3.99.34-.55-.45-.87-1.1-.83-1.82,0-.17.05-.67.31-.61.09.02.6.38.78.46.59.25,1.3.35,1.93.43l-.19-.73c.65-.12,1.29-.37,1.73-.87,0-.07-.26-.26-.33-.31-.41-.31-.95-.53-1.46-.56l.26-.77c-.87.16-1.76.26-2.52.77.14-.3.3-.58.42-.89.09-.25.14-.51.22-.76.04-.13.36-.81.3-.87-.37-.04-.68.1-1,.26l-.33-.91c-.07-.14-.53-.8-.65-.8-.35.23-.63.67-.78,1.06-.04.11-.16.64-.2.65-.32-.16-.64-.29-1-.26-.06.06.23.69.28.81.1.31.17.64.29.95.1.26.27.5.37.76-.03.03-.41-.23-.48-.26-.64-.29-1.35-.36-2.03-.5l.21.77c-.66.08-1.33.39-1.79.87.48.49,1.1.75,1.77.87l-.24.73c.73-.08,1.51-.2,2.18-.53.13-.06.51-.34.59-.36.38-.09.33.84.31,1.04-.05.52-.41,1.08-.82,1.4-1.07.84-2.71.54-3.62-.38,1.12-.76.2-2.31-1.03-1.79-.59.25-.77.93-.44,1.47l.32.32c-.84.65-2.15,1.08-3.2.77-.74-.22-1.44-.9-1.56-1.68-.03-.21-.11-1.26.28-1.14.15.05.46.29.64.38.63.31,1.39.42,2.09.5l-.26-.72c.67-.11,1.32-.38,1.79-.88-.47-.49-1.11-.81-1.79-.87l.26-.77c-.61.13-1.29.19-1.86.42-.1.04-.67.37-.7.35.5-.74.6-1.65.98-2.45-.04-.21-.95.09-1.07.23-.07-.66-.43-1.36-.96-1.75-.51.41-.86,1.09-.92,1.75-.12-.15-1.03-.44-1.07-.23.37.8.49,1.71.98,2.45-.03.03-.6-.31-.7-.35-.59-.24-1.25-.29-1.86-.42l.26.77c-.65.06-1.21.33-1.69.77-.03.03-.07.04-.11.04-.07.1.5.48.6.53.38.22.76.33,1.2.41l-.26.72c.82-.08,1.57-.24,2.3-.62.26-.13.56-.49.72-.04.16.46,0,1.14-.23,1.55-.84,1.53-3,1.41-4.16.32-.01-.05.21-.2.27-.28.49-.61.08-1.52-.68-1.61-1.13-.13-1.72,1.14-.79,1.85-.56.48-1.5.83-2.24.88-1.41.09-2.64-.95-2.53-2.41.06-.86.36-.45.8-.22.69.35,1.46.49,2.22.57l-.19-.73c.65-.12,1.29-.37,1.73-.87-.42-.5-1.14-.82-1.79-.88.12-.24.25-.49.26-.77-.87.16-1.76.27-2.52.77.14-.3.3-.58.42-.89.09-.25.14-.51.22-.76.04-.13.36-.81.3-.87-.37-.04-.68.1-1,.26l-.33-.91c-.1-.15-.52-.84-.69-.79-.21.05-.66.83-.74,1.05-.04.11-.16.64-.2.65-.32-.16-.64-.29-1-.26-.06.06.26.74.3.87.1.29.15.6.26.89.1.26.27.5.37.76-.03.03-.41-.23-.48-.26-.64-.3-1.35-.36-2.03-.5l.21.77c-.66.08-1.33.39-1.79.87.48.49,1.1.75,1.77.87l-.24.73c.73-.08,1.51-.2,2.18-.53.13-.06.51-.34.59-.36.14-.03.28.16.3.28.15.84-.16,1.66-.83,2.18-1.05.81-2.64.52-3.55-.36.74-.42.81-1.46,0-1.83-1.22-.57-2.23,1.07-1.02,1.77-1.47,1.61-4.66.97-4.48-1.52.03-.35.13-.46.4-.66.6.7,1.4,1.08,2.18,1.53.09.01.05,0,.06-.06.03-.24-.1-.51-.09-.75.54.1,1.14.11,1.62-.19-.32-.52-.77-.94-1.28-1.28l.34-.57c-.85-.08-1.72-.4-2.56-.09.65-.62,1.13-1.63.47-2.41l-.38.28C2.54.59.76-.04,0,1.09c.6.44,1.25.95,1.32,1.75Z"/>
        <path class="cls-2" d="M46.84,15.73c-.11-.17-.38-.16-.57-.2H1.3c-.15,0-.41.04-.53.13l-.04-.04c-.42.32-.23,1.27.4,1.2h45.22c.21-.02.41-.03.53-.21l-.04-.04c.13-.18.12-.64,0-.83Z"/>
        <path class="cls-2" d="M46.84,10.79s-.15-.12-.19-.13l-45.72-.02c-.2.06-.25.19-.34.36.03.59-.02.76.66.81h44.97c.19-.03.5-.02.61-.2.12-.18.13-.65,0-.83Z"/>
        <path class="cls-2" d="M26.89,14.2c1.48-.59.02-1.09-.73-1.26-.98-.22-2.21-.24-3.22-.17-.53.04-2.18.27-2.49.71-.26.37.3.61.56.71,1.38.55,4.49.55,5.87,0Z"/>
        <path class="cls-2" d="M38.14,13.57l-3.35-.98c-1.01.34-2.03.66-3.03,1.02-.11.04-.29.08-.36.17l3.39.98c1.03-.38,2.1-.67,3.12-1.06.07-.02.21-.06.23-.13Z"/>
        <path class="cls-2" d="M13.12,12.59c-1,.43-2.28.66-3.25,1.11-.04.02-.1.02-.11.09l3.39.98,3.35-1.19-3.39-.98Z"/>
        <path class="cls-2" d="M5.27,14.08c.39-.33.28-.62-.1-.88-.67-.46-2.04-.51-2.83-.43-.49.05-2.37.5-1.55,1.27.8.75,3.65.73,4.48.04Z"/>
        <path class="cls-2" d="M46.45,14.22c.62-.33.63-.77,0-1.11-.7-.37-1.92-.42-2.7-.35-.44.04-1.13.21-1.48.48-.68.54.08.97.6,1.14.95.31,2.67.31,3.57-.17Z"/>
        <path class="cls-2" d="M41.15,13.67c0-.53-.43-.97-.97-.97s-.97.43-.97.97.43.97.97.97.97-.43.97-.97Z"/>
        <circle class="cls-2" cx="7.72" cy="13.67" r=".97"/>
        <path class="cls-2" d="M30.33,13.67c0-.53-.43-.97-.97-.97s-.97.43-.97.97.43.97.97.97.97-.43.97-.97Z"/>
        <path class="cls-2" d="M19.51,13.67c0-.53-.43-.97-.97-.97s-.97.43-.97.97.43.97.97.97.97-.43.97-.97Z"/>
      </g>
      <text class="cls-1" transform="translate(58.35 56.19)"><tspan x="0" y="0">Madrid</tspan></text>
    </g>
  </g>
</svg>