<?xml version="1.0" encoding="UTF-8"?>
<svg id="Layer_2" data-name="Layer 2" xmlns="http://www.w3.org/2000/svg" viewBox="0 0 395.18 477.49">
  <defs>
    <style>
      .cls-1, .cls-2 {
        fill: #3c4650;
      }

      .cls-3, .cls-2 {
        font-family: Sen-ExtraBold, Sen;
        font-size: 105.73px;
        font-variation-settings: 'wght' 800;
        font-weight: 700;
      }

      .cls-4 {
        fill-rule: evenodd;
      }
    </style>
  </defs>
  <g id="Layer_2-2" data-name="Layer 2">
    <g>
      <g>
        <path class="cls-4" d="M128.23,188.17c2.87-3.81,4.55-3.85,9.48-3.55,10.65.22,24.64-.39,28.94-9.15,2.28-4.4.84-9.37-3-12.57-4.46-4.13-10.62-6.64-15.06-10.82-3.76-3.58-4.81-9.01-6.88-13.55-1.29-2.85-3-5.48-4.95-7.93-1.97-2.46-4.21-4.66-6.64-6.7-1.81-1.63-4.51-3.67-5.07-5.9-.53-2.7.53-4.89.83-8.02,1.46-12.37-5.57-8.88-13.8-6.01-6.88,1.73-14.18,1.95-20.28,5.97-16.8,10.67-32.7,24.79-42.83,42.16-3.71,6.33-6.48,13.21-10.57,19.31-8.98,12.38-20.88,19.92-21.45,36.87-1,8.78-.43,17.61-3.03,26.06-7.08,20.12-14.48,40.41-8.91,62.15,2.59,11.76-3.95,22.87-4.64,34.34-.15,10.82,2.34,21.43,2.78,32.25,3.72,33.17-10.09,67.36,1.79,99.33,5.28,14.34,21.48,14.98,36.19,15.07,5.98.05,12.41.22,17.95-2.24,7.29-3.67,8.46-8.77.32-12.15-24.04-7.75-3.24-28.76,10.75-38.61,11.13-7.56,9.94,7.88,9.25,15.42-.97,11.17-3.68,19.51,5.71,26.25,10.86,7.07,37.77,6.58,51.09,6.45,4.42-.23,11.16-.25,14.23-4,2.38-3.27-.09-6.46-3.68-7.76-6.96-3.27-17.97.27-22.99-5.59-6.27-9.26,6.1-19.19,6.4-29.12,1.25-7.42,2.89-14.63,4.71-21.92,2.18-9.05-5.69-39.66-10.22-45.25-2.93-3.53-5.07-7.61-5.74-12.13-.82-5.03-.56-10.95-.25-16.22.08-4.29,1.94-3.38,3.72-.33,3.71,6.66,3.55,14.06,7.53,20.79,3.02,5.47,11.73,21.23,18.54,12.81,2.46-5.46.04-12.15,1.96-17.84,2.9-9.31,9.06-18.87,4.11-28.55-3.87-8.51-8.07-15.94-8.89-25.24-3.72-17.65-10.21-34.88-9.92-53.07.69-14.89-9.08-26.01-15.11-38.41-6.85-17.84.77-9.59,7.61-12.56l.07-.05Z"/>
        <path d="M16.28,108.63c-3.91-5.76,9.77-14.12,9.34-21.62.06-3.01-2.75-5.58-6.03-6.37-5.16-1.74-13.74,1.41-18.07-1.72-2.6-2.05-1.45-5.86.3-8.54,1.72-2.65,4.14-4.81,7.15-6.15,22.96-8.91,50.48,11.65,30.68,34.24-3.37,4.17-7.35,7.49-12.03,9.86-4.48,2.13-8.8,3.2-11.3.34l-.03-.05ZM20.47,135.1c-6.92.08-11.53-7.82-8.07-13.81,3.45-6.41,13.08-6.29,16.36.2,3.26,5.98-1.36,13.69-8.18,13.61h-.12Z"/>
        <path d="M94.6,46.52c-3.91-5.76,9.77-14.12,9.34-21.62.06-3.01-2.75-5.58-6.03-6.37-5.16-1.74-13.74,1.41-18.07-1.72-2.6-2.05-1.45-5.86.3-8.54,1.72-2.65,4.14-4.81,7.15-6.15,22.96-8.91,50.48,11.65,30.68,34.24-3.37,4.17-7.35,7.49-12.03,9.86-4.48,2.13-8.8,3.2-11.3.34l-.03-.05ZM98.79,72.99c-6.92.08-11.53-7.82-8.07-13.81,3.45-6.41,13.08-6.29,16.36.2,3.26,5.98-1.36,13.69-8.18,13.61h-.12Z"/>
        <path d="M184.01,117.1c-3.91-5.76,9.77-14.12,9.34-21.62.06-3.01-2.75-5.58-6.03-6.37-5.16-1.74-13.74,1.41-18.07-1.72-2.6-2.05-1.45-5.86.3-8.54,1.72-2.65,4.14-4.81,7.15-6.15,22.96-8.91,50.48,11.65,30.68,34.24-3.37,4.17-7.35,7.49-12.03,9.86-4.48,2.13-8.8,3.2-11.3.34l-.03-.05ZM188.2,143.56c-6.92.08-11.53-7.82-8.07-13.81,3.45-6.41,13.08-6.29,16.36.2,3.26,5.98-1.36,13.69-8.18,13.61h-.12Z"/>
        <text class="cls-3" transform="translate(209.33 255.93)"><tspan x="0" y="0">404</tspan></text>
      </g>
      <g>
        <path class="cls-1" d="M128.23,188.17c2.87-3.81,4.55-3.85,9.48-3.55,10.65.22,24.64-.39,28.94-9.15,2.28-4.4.84-9.37-3-12.57-4.46-4.13-10.62-6.64-15.06-10.82-3.76-3.58-4.81-9.01-6.88-13.55-1.29-2.85-3-5.48-4.95-7.93-1.97-2.46-4.21-4.66-6.64-6.7-1.81-1.63-4.51-3.67-5.07-5.9-.53-2.7.53-4.89.83-8.02,1.46-12.37-5.57-8.88-13.8-6.01-6.88,1.73-14.18,1.95-20.28,5.97-16.8,10.67-32.7,24.79-42.83,42.16-3.71,6.33-6.48,13.21-10.57,19.31-8.98,12.38-20.88,19.92-21.45,36.87-1,8.78-.43,17.61-3.03,26.06-7.08,20.12-14.48,40.41-8.91,62.15,2.59,11.76-3.95,22.87-4.64,34.34-.15,10.82,2.34,21.43,2.78,32.25,3.72,33.17-10.09,67.36,1.79,99.33,5.28,14.34,21.48,14.98,36.19,15.07,5.98.05,12.41.22,17.95-2.24,7.29-3.67,8.46-8.77.32-12.15-24.04-7.75-3.24-28.76,10.75-38.61,11.13-7.56,9.94,7.88,9.25,15.42-.97,11.17-3.68,19.51,5.71,26.25,10.86,7.07,37.77,6.58,51.09,6.45,4.42-.23,11.16-.25,14.23-4,2.38-3.27-.09-6.46-3.68-7.76-6.96-3.27-17.97.27-22.99-5.59-6.27-9.26,6.1-19.19,6.4-29.12,1.25-7.42,2.89-14.63,4.71-21.92,2.18-9.05-5.69-39.66-10.22-45.25-2.93-3.53-5.07-7.61-5.74-12.13-.82-5.03-.56-10.95-.25-16.22.08-4.29,1.94-3.38,3.72-.33,3.71,6.66,3.55,14.06,7.53,20.79,3.02,5.47,11.73,21.23,18.54,12.81,2.46-5.46.04-12.15,1.96-17.84,2.9-9.31,9.06-18.87,4.11-28.55-3.87-8.51-8.07-15.94-8.89-25.24-3.72-17.65-10.21-34.88-9.92-53.07.69-14.89-9.08-26.01-15.11-38.41-6.85-17.84.77-9.59,7.61-12.56l.07-.05Z"/>
        <path class="cls-1" d="M16.28,108.63c-3.91-5.76,9.77-14.12,9.34-21.62.06-3.01-2.75-5.58-6.03-6.37-5.16-1.74-13.74,1.41-18.07-1.72-2.6-2.05-1.45-5.86.3-8.54,1.72-2.65,4.14-4.81,7.15-6.15,22.96-8.91,50.48,11.65,30.68,34.24-3.37,4.17-7.35,7.49-12.03,9.86-4.48,2.13-8.8,3.2-11.3.34l-.03-.05ZM20.47,135.1c-6.92.08-11.53-7.82-8.07-13.81,3.45-6.41,13.08-6.29,16.36.2,3.26,5.98-1.36,13.69-8.18,13.61h-.12Z"/>
        <path class="cls-1" d="M94.6,46.52c-3.91-5.76,9.77-14.12,9.34-21.62.06-3.01-2.75-5.58-6.03-6.37-5.16-1.74-13.74,1.41-18.07-1.72-2.6-2.05-1.45-5.86.3-8.54,1.72-2.65,4.14-4.81,7.15-6.15,22.96-8.91,50.48,11.65,30.68,34.24-3.37,4.17-7.35,7.49-12.03,9.86-4.48,2.13-8.8,3.2-11.3.34l-.03-.05ZM98.79,72.99c-6.92.08-11.53-7.82-8.07-13.81,3.45-6.41,13.08-6.29,16.36.2,3.26,5.98-1.36,13.69-8.18,13.61h-.12Z"/>
        <path class="cls-1" d="M184.01,117.1c-3.91-5.76,9.77-14.12,9.34-21.62.06-3.01-2.75-5.58-6.03-6.37-5.16-1.74-13.74,1.41-18.07-1.72-2.6-2.05-1.45-5.86.3-8.54,1.72-2.65,4.14-4.81,7.15-6.15,22.96-8.91,50.48,11.65,30.68,34.24-3.37,4.17-7.35,7.49-12.03,9.86-4.48,2.13-8.8,3.2-11.3.34l-.03-.05ZM188.2,143.56c-6.92.08-11.53-7.82-8.07-13.81,3.45-6.41,13.08-6.29,16.36.2,3.26,5.98-1.36,13.69-8.18,13.61h-.12Z"/>
        <text class="cls-2" transform="translate(209.33 255.93)"><tspan x="0" y="0">404</tspan></text>
      </g>
    </g>
  </g>
</svg>